<?xml version="1.0" standalone="no"?>
<!DOCTYPE svg PUBLIC "-//W3C//DTD SVG 20010904//EN"
 "http://www.w3.org/TR/2001/REC-SVG-20010904/DTD/svg10.dtd">
<svg version="1.0" xmlns="http://www.w3.org/2000/svg"
 width="70.000000pt" height="70.000000pt" viewBox="0 0 70.000000 70.000000"
 preserveAspectRatio="xMidYMid meet">
<metadata>
Created by potrace 1.14, written by Peter Selinger 2001-2017
</metadata>
<g transform="translate(0.000000,70.000000) scale(0.100000,-0.100000)"
fill="#000000" stroke="none">
<path d="M337 693 c-4 -3 -21 -5 -39 -5 -31 2 -61 -8 -98 -29 -8 -5 -30 -15
-47 -23 -18 -8 -33 -20 -33 -25 0 -6 -5 -11 -12 -11 -6 0 -22 -10 -34 -21 -22
-21 -22 -23 -7 -53 20 -40 75 -115 131 -180 72 -83 84 -119 80 -242 -2 -57 0
-104 4 -104 4 0 8 6 8 13 8 207 36 241 279 342 63 25 75 34 76 55 2 14 -1 32
-6 41 -4 9 -4 20 2 26 6 6 3 18 -9 34 -11 13 -17 29 -15 36 2 6 -5 17 -17 23
-11 6 -25 22 -30 36 -5 13 -16 24 -24 24 -7 0 -19 7 -26 15 -20 24 -35 18 -81
-30 -24 -25 -46 -45 -49 -45 -3 0 -7 26 -8 57 -3 60 -23 89 -45 66z"/>
</g>
</svg>
